<?xml version="1.0" encoding="UTF-8" standalone="no"?>
<!DOCTYPE svg PUBLIC "-//W3C//DTD SVG 1.1//EN"
 "http://www.w3.org/Graphics/SVG/1.1/DTD/svg11.dtd">
<!-- Generated by graphviz version 2.43.0 (0)
 -->
<!-- Title: workflow Pages: 1 -->
<svg width="290pt" height="760pt"
 viewBox="0.00 0.00 289.50 760.00" xmlns="http://www.w3.org/2000/svg" xmlns:xlink="http://www.w3.org/1999/xlink">
<g id="graph0" class="graph" transform="scale(1 1) rotate(0) translate(4 756)">
<title>workflow</title>
<polygon fill="white" stroke="transparent" points="-4,4 -4,-756 285.5,-756 285.5,4 -4,4"/>
<text text-anchor="start" x="92.75" y="-8.8" font-family="Times,serif" font-weight="bold" font-size="14.00">ImageWorkflow</text>
<!-- place_new -->
<g id="node1" class="node">
<title>place_new</title>
<ellipse fill="lightgreen" stroke="lightBlue" cx="201" cy="-707" rx="72" ry="36"/>
<text text-anchor="start" x="193" y="-709.6" font-family="Arial" font-weight="bold" font-size="8.00">new</text>
<text text-anchor="start" x="162.5" y="-701.6" font-family="Arial" font-style="italic" font-size="8.00">persisted to database</text>
<text text-anchor="middle" x="64.5" y="-745.6" font-family="Arial" font-size="8.00">Place new: Created during app:load</text>
</g>
<!-- transition_dispatch -->
<g id="node5" class="node">
<title>transition_dispatch</title>
<polygon fill="lightBlue" stroke="lightBlue" points="273,-635 129,-635 129,-563 273,-563 273,-635"/>
<text text-anchor="start" x="183.5" y="-598.1" font-family="Arial" font-weight="bold" font-size="8.00">dispatch</text>
<text text-anchor="middle" x="94" y="-637.6" font-family="Arial" font-size="8.00">Transition dispatch: </text>
</g>
<!-- place_new&#45;&gt;transition_dispatch -->
<!-- new -->
<g id="edge1" class="edge">
<title>place_new&#45;&gt;transition_dispatch</title>
<path fill="none" stroke="#333333" d="M201,-671C201,-661.24 201,-650.56 201,-640.51"/>
<polygon fill="#333333" stroke="#333333" points="202.75,-640.33 201,-635.33 199.25,-640.33 202.75,-640.33"/>
</g>
<!-- place_dispatched -->
<g id="node2" class="node">
<title>place_dispatched</title>
<ellipse fill="lightgreen" stroke="lightBlue" cx="201" cy="-491" rx="72" ry="36"/>
<text text-anchor="start" x="178.5" y="-493.6" font-family="Arial" font-weight="bold" font-size="8.00">dispatched</text>
<text text-anchor="start" x="169" y="-485.6" font-family="Arial" font-style="italic" font-size="8.00">dispatched to sais</text>
<text text-anchor="middle" x="96.5" y="-529.6" font-family="Arial" font-size="8.00">Place dispatched: </text>
</g>
<!-- transition_complete -->
<g id="node6" class="node">
<title>transition_complete</title>
<polygon fill="lightBlue" stroke="lightBlue" points="281.5,-419 120.5,-419 120.5,-347 281.5,-347 281.5,-419"/>
<text text-anchor="start" x="182.5" y="-389.6" font-family="Arial" font-weight="bold" font-size="8.00">complete</text>
<text text-anchor="start" x="180" y="-381.6" font-family="Arial" text-decoration="underline" font-size="8.00">Thumbnails</text>
<text text-anchor="start" x="128.5" y="-373.6" font-family="Arial" font-style="italic" font-size="8.00">After thumb webhook has been received</text>
<text text-anchor="middle" x="84" y="-421.6" font-family="Arial" font-size="8.00">Transition complete: </text>
</g>
<!-- place_dispatched&#45;&gt;transition_complete -->
<!-- dispatched -->
<g id="edge3" class="edge">
<title>place_dispatched&#45;&gt;transition_complete</title>
<path fill="none" stroke="#333333" d="M201,-455C201,-445.24 201,-434.56 201,-424.51"/>
<polygon fill="#333333" stroke="#333333" points="202.75,-424.33 201,-419.33 199.25,-424.33 202.75,-424.33"/>
</g>
<!-- place_ready -->
<g id="node3" class="node">
<title>place_ready</title>
<ellipse fill="lightgreen" stroke="lightBlue" cx="201" cy="-275" rx="72" ry="36"/>
<text text-anchor="start" x="190" y="-277.6" font-family="Arial" font-weight="bold" font-size="8.00">ready</text>
<text text-anchor="start" x="180.5" y="-269.6" font-family="Arial" font-style="italic" font-size="8.00">has resized</text>
<text text-anchor="middle" x="105.5" y="-313.6" font-family="Arial" font-size="8.00">Place ready: </text>
</g>
<!-- transition_fail -->
<g id="node7" class="node">
<title>transition_fail</title>
<polygon fill="lightBlue" stroke="lightBlue" points="273,-203 129,-203 129,-131 273,-131 273,-203"/>
<text text-anchor="start" x="194.5" y="-166.1" font-family="Arial" font-weight="bold" font-size="8.00">fail</text>
<text text-anchor="middle" x="103.5" y="-205.6" font-family="Arial" font-size="8.00">Transition fail: </text>
</g>
<!-- place_ready&#45;&gt;transition_fail -->
<!-- ready -->
<g id="edge5" class="edge">
<title>place_ready&#45;&gt;transition_fail</title>
<path fill="none" stroke="#333333" d="M201,-239C201,-229.24 201,-218.56 201,-208.51"/>
<polygon fill="#333333" stroke="#333333" points="202.75,-208.33 201,-203.33 199.25,-208.33 202.75,-208.33"/>
</g>
<!-- place_failed -->
<g id="node4" class="node">
<title>place_failed</title>
<ellipse fill="lightgreen" stroke="lightBlue" cx="201" cy="-59" rx="72" ry="36"/>
<text text-anchor="start" x="190" y="-58.1" font-family="Arial" font-weight="bold" font-size="8.00">failed</text>
<text text-anchor="middle" x="106" y="-97.6" font-family="Arial" font-size="8.00">Place failed: </text>
</g>
<!-- transition_dispatch&#45;&gt;place_dispatched -->
<g id="edge2" class="edge">
<title>transition_dispatch&#45;&gt;place_dispatched</title>
<path fill="none" stroke="#333333" d="M201,-563C201,-553.24 201,-542.56 201,-532.51"/>
<polygon fill="#333333" stroke="#333333" points="202.75,-532.33 201,-527.33 199.25,-532.33 202.75,-532.33"/>
</g>
<!-- transition_complete&#45;&gt;place_ready -->
<g id="edge4" class="edge">
<title>transition_complete&#45;&gt;place_ready</title>
<path fill="none" stroke="#333333" d="M201,-347C201,-337.24 201,-326.56 201,-316.51"/>
<polygon fill="#333333" stroke="#333333" points="202.75,-316.33 201,-311.33 199.25,-316.33 202.75,-316.33"/>
</g>
<!-- transition_fail&#45;&gt;place_failed -->
<g id="edge6" class="edge">
<title>transition_fail&#45;&gt;place_failed</title>
<path fill="none" stroke="#333333" d="M201,-131C201,-121.24 201,-110.56 201,-100.51"/>
<polygon fill="#333333" stroke="#333333" points="202.75,-100.33 201,-95.33 199.25,-100.33 202.75,-100.33"/>
</g>
</g>
</svg>
