<?xml version="1.0" encoding="UTF-8" standalone="no"?>
<!DOCTYPE svg PUBLIC "-//W3C//DTD SVG 1.1//EN"
 "http://www.w3.org/Graphics/SVG/1.1/DTD/svg11.dtd">
<!-- Generated by graphviz version 2.43.0 (0)
 -->
<!-- Title: workflow Pages: 1 -->
<svg width="369pt" height="760pt"
 viewBox="0.00 0.00 369.00 760.00" xmlns="http://www.w3.org/2000/svg" xmlns:xlink="http://www.w3.org/1999/xlink">
<g id="graph0" class="graph" transform="scale(1 1) rotate(0) translate(4 756)">
<title>workflow</title>
<polygon fill="white" stroke="transparent" points="-4,4 -4,-756 365,-756 365,4 -4,4"/>
<text text-anchor="start" x="132.5" y="-8.8" font-family="Times,serif" font-weight="bold" font-size="14.00">ImageWorkflow</text>
<!-- place_new -->
<g id="node1" class="node">
<title>place_new</title>
<ellipse fill="lightgreen" stroke="lightBlue" cx="289" cy="-707" rx="72" ry="36"/>
<text text-anchor="start" x="281" y="-709.6" font-family="Arial" font-weight="bold" font-size="8.00">new</text>
<text text-anchor="start" x="250.5" y="-701.6" font-family="Arial" font-style="italic" font-size="8.00">persisted to database</text>
<text text-anchor="middle" x="152.5" y="-745.6" font-family="Arial" font-size="8.00">Place new: Created during app:load</text>
</g>
<!-- transition_dispatch -->
<g id="node5" class="node">
<title>transition_dispatch</title>
<polygon fill="lightBlue" stroke="lightBlue" points="361,-635 217,-635 217,-563 361,-563 361,-635"/>
<text text-anchor="start" x="271.5" y="-601.6" font-family="Arial" font-weight="bold" font-size="8.00">dispatch</text>
<text text-anchor="start" x="263.5" y="-593.6" font-family="Arial" font-style="italic" font-size="8.00">request resize</text>
<text text-anchor="middle" x="130.5" y="-637.6" font-family="Arial" font-size="8.00">Transition dispatch: Send a resize request to sais</text>
</g>
<!-- place_new&#45;&gt;transition_dispatch -->
<!-- new -->
<g id="edge1" class="edge">
<title>place_new&#45;&gt;transition_dispatch</title>
<path fill="none" stroke="#333333" d="M289,-671C289,-661.24 289,-650.56 289,-640.51"/>
<polygon fill="#333333" stroke="#333333" points="290.75,-640.33 289,-635.33 287.25,-640.33 290.75,-640.33"/>
</g>
<!-- place_dispatched -->
<g id="node2" class="node">
<title>place_dispatched</title>
<ellipse fill="lightgreen" stroke="lightBlue" cx="289" cy="-491" rx="72" ry="36"/>
<text text-anchor="start" x="266.5" y="-493.6" font-family="Arial" font-weight="bold" font-size="8.00">dispatched</text>
<text text-anchor="start" x="257" y="-485.6" font-family="Arial" font-style="italic" font-size="8.00">dispatched to sais</text>
<text text-anchor="middle" x="184.5" y="-529.6" font-family="Arial" font-size="8.00">Place dispatched: </text>
</g>
<!-- transition_complete -->
<g id="node6" class="node">
<title>transition_complete</title>
<polygon fill="lightBlue" stroke="lightBlue" points="361,-419 217,-419 217,-347 361,-347 361,-419"/>
<text text-anchor="start" x="270.5" y="-389.6" font-family="Arial" font-weight="bold" font-size="8.00">complete</text>
<text text-anchor="start" x="268" y="-381.6" font-family="Arial" text-decoration="underline" font-size="8.00">Thumbnails</text>
<text text-anchor="start" x="264" y="-373.6" font-family="Arial" font-style="italic" font-size="8.00">if resized exist</text>
<text text-anchor="middle" x="108.5" y="-421.6" font-family="Arial" font-size="8.00">Transition complete: After thumb webhook has been received</text>
</g>
<!-- place_dispatched&#45;&gt;transition_complete -->
<!-- dispatched -->
<g id="edge3" class="edge">
<title>place_dispatched&#45;&gt;transition_complete</title>
<path fill="none" stroke="#333333" d="M289,-455C289,-445.24 289,-434.56 289,-424.51"/>
<polygon fill="#333333" stroke="#333333" points="290.75,-424.33 289,-419.33 287.25,-424.33 290.75,-424.33"/>
</g>
<!-- place_ready -->
<g id="node3" class="node">
<title>place_ready</title>
<ellipse fill="lightgreen" stroke="lightBlue" cx="289" cy="-275" rx="72" ry="36"/>
<text text-anchor="start" x="278" y="-277.6" font-family="Arial" font-weight="bold" font-size="8.00">ready</text>
<text text-anchor="start" x="268.5" y="-269.6" font-family="Arial" font-style="italic" font-size="8.00">has resized</text>
<text text-anchor="middle" x="193.5" y="-313.6" font-family="Arial" font-size="8.00">Place ready: </text>
</g>
<!-- transition_fail -->
<g id="node7" class="node">
<title>transition_fail</title>
<polygon fill="lightBlue" stroke="lightBlue" points="361,-203 217,-203 217,-131 361,-131 361,-203"/>
<text text-anchor="start" x="282.5" y="-166.1" font-family="Arial" font-weight="bold" font-size="8.00">fail</text>
<text text-anchor="middle" x="191.5" y="-205.6" font-family="Arial" font-size="8.00">Transition fail: </text>
</g>
<!-- place_ready&#45;&gt;transition_fail -->
<!-- ready -->
<g id="edge5" class="edge">
<title>place_ready&#45;&gt;transition_fail</title>
<path fill="none" stroke="#333333" d="M289,-239C289,-229.24 289,-218.56 289,-208.51"/>
<polygon fill="#333333" stroke="#333333" points="290.75,-208.33 289,-203.33 287.25,-208.33 290.75,-208.33"/>
</g>
<!-- place_failed -->
<g id="node4" class="node">
<title>place_failed</title>
<ellipse fill="lightgreen" stroke="lightBlue" cx="289" cy="-59" rx="72" ry="36"/>
<text text-anchor="start" x="278" y="-58.1" font-family="Arial" font-weight="bold" font-size="8.00">failed</text>
<text text-anchor="middle" x="194" y="-97.6" font-family="Arial" font-size="8.00">Place failed: </text>
</g>
<!-- transition_dispatch&#45;&gt;place_dispatched -->
<g id="edge2" class="edge">
<title>transition_dispatch&#45;&gt;place_dispatched</title>
<path fill="none" stroke="#333333" d="M289,-563C289,-553.24 289,-542.56 289,-532.51"/>
<polygon fill="#333333" stroke="#333333" points="290.75,-532.33 289,-527.33 287.25,-532.33 290.75,-532.33"/>
</g>
<!-- transition_complete&#45;&gt;place_ready -->
<g id="edge4" class="edge">
<title>transition_complete&#45;&gt;place_ready</title>
<path fill="none" stroke="#333333" d="M289,-347C289,-337.24 289,-326.56 289,-316.51"/>
<polygon fill="#333333" stroke="#333333" points="290.75,-316.33 289,-311.33 287.25,-316.33 290.75,-316.33"/>
</g>
<!-- transition_fail&#45;&gt;place_failed -->
<g id="edge6" class="edge">
<title>transition_fail&#45;&gt;place_failed</title>
<path fill="none" stroke="#333333" d="M289,-131C289,-121.24 289,-110.56 289,-100.51"/>
<polygon fill="#333333" stroke="#333333" points="290.75,-100.33 289,-95.33 287.25,-100.33 290.75,-100.33"/>
</g>
</g>
</svg>
