<?xml version="1.0" encoding="UTF-8" standalone="no"?>
<!DOCTYPE svg PUBLIC "-//W3C//DTD SVG 1.1//EN"
 "http://www.w3.org/Graphics/SVG/1.1/DTD/svg11.dtd">
<!-- Generated by graphviz version 2.43.0 (0)
 -->
<!-- Title: workflow Pages: 1 -->
<svg width="728pt" height="67pt"
 viewBox="0.00 0.00 728.00 67.00" xmlns="http://www.w3.org/2000/svg" xmlns:xlink="http://www.w3.org/1999/xlink">
<g id="graph0" class="graph" transform="scale(1 1) rotate(0) translate(4 63)">
<title>workflow</title>
<polygon fill="white" stroke="transparent" points="-4,4 -4,-63 724,-63 724,4 -4,4"/>
<text text-anchor="start" x="299" y="-8.8" font-family="Times,serif" font-weight="bold" font-size="14.00">ImageWorkflow</text>
<!-- place_new -->
<g id="node1" class="node">
<title>place_new</title>
<ellipse fill="lightgreen" stroke="#333333" cx="36" cy="-41" rx="36" ry="18"/>
<text text-anchor="start" x="28" y="-40.1" font-family="Arial" font-weight="bold" font-size="8.00">new</text>
</g>
<!-- transition_0 -->
<g id="node5" class="node">
<title>transition_0</title>
<polygon fill="none" stroke="#333333" points="180,-59 108,-59 108,-23 180,-23 180,-59"/>
<text text-anchor="start" x="124.5" y="-40.1" font-family="Arial" font-weight="bold" font-size="8.00">dispatch</text>
<text text-anchor="start" x="159.5" y="-40.1" font-family="Arial" baseline-shift="super" font-size="8.00">1</text>
</g>
<!-- place_new&#45;&gt;transition_0 -->
<!-- new -->
<g id="edge1" class="edge">
<title>place_new&#45;&gt;transition_0</title>
<path fill="none" stroke="#333333" d="M72,-41C81.76,-41 92.44,-41 102.49,-41"/>
<polygon fill="#333333" stroke="#333333" points="102.67,-42.75 107.67,-41 102.67,-39.25 102.67,-42.75"/>
</g>
<!-- place_dispatched -->
<g id="node2" class="node">
<title>place_dispatched</title>
<ellipse fill="lightgreen" stroke="#333333" cx="252" cy="-41" rx="36" ry="18"/>
<text text-anchor="start" x="229.5" y="-40.1" font-family="Arial" font-weight="bold" font-size="8.00">dispatched</text>
</g>
<!-- transition_1 -->
<g id="node6" class="node">
<title>transition_1</title>
<polygon fill="none" stroke="#333333" points="396,-59 324,-59 324,-23 396,-23 396,-59"/>
<text text-anchor="start" x="339.5" y="-40.1" font-family="Arial" font-weight="bold" font-size="8.00">complete</text>
<text text-anchor="start" x="376.5" y="-40.1" font-family="Arial" baseline-shift="super" font-size="8.00">1</text>
</g>
<!-- place_dispatched&#45;&gt;transition_1 -->
<!-- dispatched -->
<g id="edge3" class="edge">
<title>place_dispatched&#45;&gt;transition_1</title>
<path fill="none" stroke="#333333" d="M288,-41C297.76,-41 308.44,-41 318.49,-41"/>
<polygon fill="#333333" stroke="#333333" points="318.67,-42.75 323.67,-41 318.67,-39.25 318.67,-42.75"/>
</g>
<!-- place_ready -->
<g id="node3" class="node">
<title>place_ready</title>
<ellipse fill="lightgreen" stroke="#333333" cx="468" cy="-41" rx="36" ry="18"/>
<text text-anchor="start" x="457" y="-40.1" font-family="Arial" font-weight="bold" font-size="8.00">ready</text>
</g>
<!-- transition_2 -->
<g id="node7" class="node">
<title>transition_2</title>
<polygon fill="none" stroke="#333333" points="612,-59 540,-59 540,-23 612,-23 612,-59"/>
<text text-anchor="start" x="567.5" y="-40.1" font-family="Arial" font-weight="bold" font-size="8.00">fail</text>
<text text-anchor="start" x="580.5" y="-40.1" font-family="Arial" baseline-shift="super" font-size="8.00">1</text>
</g>
<!-- place_ready&#45;&gt;transition_2 -->
<!-- ready -->
<g id="edge5" class="edge">
<title>place_ready&#45;&gt;transition_2</title>
<path fill="none" stroke="#333333" d="M504,-41C513.76,-41 524.44,-41 534.49,-41"/>
<polygon fill="#333333" stroke="#333333" points="534.67,-42.75 539.67,-41 534.67,-39.25 534.67,-42.75"/>
</g>
<!-- place_failed -->
<g id="node4" class="node">
<title>place_failed</title>
<ellipse fill="lightgreen" stroke="#333333" cx="684" cy="-41" rx="36" ry="18"/>
<text text-anchor="start" x="673" y="-40.1" font-family="Arial" font-weight="bold" font-size="8.00">failed</text>
</g>
<!-- transition_0&#45;&gt;place_dispatched -->
<g id="edge2" class="edge">
<title>transition_0&#45;&gt;place_dispatched</title>
<path fill="none" stroke="#333333" d="M180,-41C189.76,-41 200.44,-41 210.49,-41"/>
<polygon fill="#333333" stroke="#333333" points="210.67,-42.75 215.67,-41 210.67,-39.25 210.67,-42.75"/>
</g>
<!-- transition_1&#45;&gt;place_ready -->
<g id="edge4" class="edge">
<title>transition_1&#45;&gt;place_ready</title>
<path fill="none" stroke="#333333" d="M396,-41C405.76,-41 416.44,-41 426.49,-41"/>
<polygon fill="#333333" stroke="#333333" points="426.67,-42.75 431.67,-41 426.67,-39.25 426.67,-42.75"/>
</g>
<!-- transition_2&#45;&gt;place_failed -->
<g id="edge6" class="edge">
<title>transition_2&#45;&gt;place_failed</title>
<path fill="none" stroke="#333333" d="M612,-41C621.76,-41 632.44,-41 642.49,-41"/>
<polygon fill="#333333" stroke="#333333" points="642.67,-42.75 647.67,-41 642.67,-39.25 642.67,-42.75"/>
</g>
</g>
</svg>
